<svg width="384" height="127" viewBox="0 0 384 127" fill="none" xmlns="http://www.w3.org/2000/svg">
<path d="M0 74.4395C34 63.4395 55.0716 60.2192 94.5 59.4395C122 44.4395 143.448 39.2727 179.5 35.9395C177.072 82.1478 171.565 102.948 146 120.939C142.898 107.911 142.336 104.422 139.5 96.9395C134.5 127.439 93.3583 128.578 33.5 124.439C68.6748 111.196 84.5777 103.312 104 88.4395C53 91.9395 102 63.4693 0 74.4395Z" fill="black"/>
<path d="M179.5 35.9278C200 12.9412 279 7.44014 277.5 24.4278C281 8.44128 289.5 2.44128 304.5 0.441278C329 -1.56047 336.227 2.90421 345.5 20.9413C375.767 25.2375 384.606 27.5535 383.5 31.9413C301 45.9413 323.5 110.941 190.5 99.4413C187.244 106.462 182.5 112.441 175 111.941C170 108.441 177.5 90.9413 169.5 93.4413L179.5 35.9278Z" fill="black"/>
</svg>
